<?xml version="1.0" standalone="no"?> <!DOCTYPE svg PUBLIC "-//W3C//DTD SVG 1.0//EN" "http://www.w3.org/TR/2001/REC-SVG-20010904/DTD/svg10.dtd" > <svg xmlns="http://www.w3.org/2000/svg" width="100%" height="100%">
<defs >
<font id="amgafi" horiz-adv-x="320" ><font-face
    font-family="A771-Roman-Osf"
    units-per-em="1000"
    panose-1="0 0 4 0 0 0 0 0 0 0"
    ascent="925"
    descent="-301"
    alphabetic="0" />
<missing-glyph horiz-adv-x="500" d="M31 0V925H469V0H31ZM438 31V894H62V31H438Z" />
<glyph unicode=" " glyph-name="space" horiz-adv-x="273" />
<glyph unicode="!" glyph-name="exclam" horiz-adv-x="248" d="M119 238Q119 254 138 311L163 390L198 550L216 641Q234 705 266 705Q309 705 309 663Q309 647 286 594L219 435L150 240Q145 226 135 220Q119 220 119 238ZM100 133Q113 133 122 124T133 99Q133
70 112 35Q87 -2 59 -2Q29 -2 29 38Q29 64 50 99Q73 133 100 133Z" />
<glyph unicode="&quot;" glyph-name="quotedbl" horiz-adv-x="349" d="M201 588L198 591Q181 580 170 580Q162 580 154 587Q149 594 147 603Q147 635 165 670Q187 710 216 710Q230 710 239 688Q245 671 245 653Q245 604 204 523Q159 437 117 426L110 428L107 432L154
494Q201 555 201 588ZM341 580Q341 586 336 587L323 582L309 578Q287 578 287 610Q287 639 305 673T348 708Q382 708 382 652V640Q382 595 359 549T286 449Q264 425 249 424L245 426L242 431Q244 440 262 456Q304 493 341 580Z" />
<glyph unicode="#" glyph-name="numbersign" horiz-adv-x="504" d="M105 206H8V273H115L141 466H34V534H151L180 740H249L220 534H344L373 740H442L413 534H496V467H403L376 273H468V206H367L338 0H269L298 206H174L145 0H76L105 206ZM211 467L184 273H307L334 467H211Z" />
<glyph unicode="$" glyph-name="dollar" horiz-adv-x="453" d="M210 295L128 367Q88 412 88 466Q88 546 146 588Q196 624 280 624L290 673Q297 708 305 716L315 718Q331 715 332 701Q332 687 325 660L318 620Q417 605 417 569Q417 553 416 545T409 513L398 456L392
448L387 447L383 448L380 451Q377 457 375 473T372 505Q372 542 362 560Q348 586 310 593L257 342L344 270Q383 228 383 165Q383 84 321 37Q268 -2 182 -10L169 -81Q157 -136 142 -136Q132 -136 124 -129L121 -122Q121 -101 143 -10Q74 -10 38 10T2 65Q2 181 32
196L36 192L38 180V161L37 141Q37 37 151 17L210 295ZM276 601H250Q201 601 169 569T136 488Q136 434 226 365L276 601ZM323 144Q323 212 272 250L242 273L188 15Q323 27 323 144Z" />
<glyph unicode="%" glyph-name="percent" horiz-adv-x="680" d="M208 620Q255 620 282 566Q302 523 302 469Q302 394 262 318Q215 228 147 228Q100 228 71 285Q49 332 49 383Q49 456 91 533Q139 620 208 620ZM550 619Q562 619 562 612Q562 606 513 530L455 440L268
139L212 46L187 8Q184 0 165 0L156 1L154 3V7Q154 17 501 566L519 600Q532 619 550 619ZM146 246Q197 246 234 356Q261 442 261 512Q261 603 210 603Q161 603 122 500Q91 413 91 353Q91 315 102 287Q117 246 146 246ZM574 387Q619 387 644 332Q664 287 664 237Q664
157 624 83Q577 -5 504 -5Q459 -5 432 57Q411 105 411 158Q411 228 457 304Q508 387 574 387ZM454 112Q454 78 465 50Q480 12 508 12Q561 12 597 123Q623 210 623 281Q623 369 573 369Q523 369 484 263Q454 179 454 112Z" />
<glyph unicode="&amp;" glyph-name="ampersand" horiz-adv-x="721" d="M143 480Q143 538 185 571T286 605Q343 605 377 574T412 486Q412 448 369 414Q348 397 292 370L359 298Q396 266 458 201L518 287Q563 353 563 371Q563 382 531 388Q491 393 489 396L487 405L488
409L492 414Q501 417 508 418T532 419L556 418L579 417L625 421L671 426Q686 426 696 419Q698 416 698 408L695 404Q689 399 668 396T625 374T569 307L519 231Q512 220 505 211T479 180Q490 171 505 155Q515 144 527 130Q535 121 554 101Q568 86 575 80Q619 44
667 37Q703 33 704 17Q704 5 675 5L628 7L581 9L539 7L497 5Q465 5 464 19L469 27Q478 28 482 29T499 35L504 41V47Q495 65 472 88L434 123Q386 55 337 24Q280 -12 204 -12Q137 -12 85 32T33 141Q33 222 85 274Q118 307 208 352Q143 426 143 480ZM351 501Q351 535
331 555T277 576Q246 576 227 556T208 503Q208 472 234 440L278 385Q351 428 351 501ZM228 333Q111 282 111 170Q111 114 150 74T243 33Q315 33 378 100Q386 113 411 143Q397 162 303 258Q276 288 228 333Z" />
<glyph unicode="&apos;" glyph-name="quotesingle" horiz-adv-x="206" d="M238 705L245 706L252 704L254 700V693Q184 630 159 563L154 543Q158 540 160 540Q178 552 185 552Q210 552 210 520Q210 491 192 458Q170 421 144 421Q113 421 113 469Q113 532 149 598T238 705Z" />
<glyph unicode="(" glyph-name="parenleft" horiz-adv-x="390" d="M503 762Q511 762 516 758L518 752Q510 743 473 718L421 684Q260 566 172 397T84 29Q84 -75 117 -200L134 -246L147 -287L146 -290L140 -295L136 -296L125 -292Q81 -237 52 -114Q28 -12 28 79Q28
180 44 257T96 400Q159 517 268 617Q383 721 503 762Z" />
<glyph unicode=")" glyph-name="parenright" horiz-adv-x="390" d="M-121 -281L-83 -253L15 -185Q314 66 314 427Q314 508 302 579T264 718L254 750Q254 755 263 757Q295 757 343 585Q369 486 369 390Q369 184 279 28Q194 -118 14 -235Q-78 -295 -116 -295Q-122
-292 -122 -285L-121 -281Z" />
<glyph unicode="*" glyph-name="asterisk" horiz-adv-x="453" d="M285 704Q303 704 315 692T328 662Q328 632 316 582T287 527L280 528Q270 537 256 591T242 662Q242 704 285 704ZM454 580Q469 580 481 564Q486 557 489 549T492 532Q492 490 411 490H366Q337 490
323 496Q320 499 318 509Q318 521 377 550T454 580ZM87 538Q87 552 97 564T122 578Q141 578 192 554Q237 533 258 515L260 510V506Q260 489 212 489H143Q87 489 87 538ZM265 464Q275 464 280 449Q277 422 242 368T184 314Q168 314 154 329T139 361Q139 377 193
420T265 464ZM305 452Q305 464 319 464Q335 464 385 416T435 349Q435 332 418 320T384 307Q363 307 334 367T305 452Z" />
<glyph unicode="+" glyph-name="plus" horiz-adv-x="638" d="M75 310H340V576H383V310H649V267H383V0H340V267H75V310Z" />
<glyph unicode="," glyph-name="comma" horiz-adv-x="206" d="M77 5Q75 10 73 10L60 4Q51 -2 44 -2Q21 -2 21 26Q21 57 38 92T82 128Q118 128 118 81Q118 21 85 -42Q56 -98 6 -143Q-9 -155 -14 -156L-22 -153L-25 -144L0 -120Q25 -97 48 -59Q71 -25 77 5Z" />
<glyph unicode="-" glyph-name="hyphen" horiz-adv-x="268" d="M48 323Q60 352 94 352L122 351L152 350L211 351L269 352L276 350L279 345L272 325L260 297Q254 291 232 291L170 292L108 294L77 292L45 290L40 296Q40 307 48 323Z" />
<glyph unicode="." glyph-name="period" horiz-adv-x="207" d="M19 28Q19 59 42 95T93 131Q125 131 125 99Q125 65 102 33Q78 -3 45 -3Q19 -3 19 28Z" />
<glyph unicode="/" glyph-name="slash" horiz-adv-x="390" d="M391 716Q401 716 419 705Q422 702 424 695Q424 688 298 445L149 159L103 62Q64 -16 53 -17Q44 -17 34 -12T21 5Q21 16 180 325L369 689Q381 716 391 716Z" />
<glyph unicode="0" glyph-name="zero" horiz-adv-x="432" d="M269 468Q348 468 396 408Q439 353 439 271Q439 165 380 82Q314 -10 213 -10Q127 -10 81 41T35 180Q35 295 93 377Q158 468 269 468ZM217 48Q295 48 347 107T400 245Q400 319 358 362T241 406Q170 406
119 342Q73 281 73 208Q73 143 112 96T217 48Z" />
<glyph unicode="1" glyph-name="one" horiz-adv-x="432" d="M211 396Q211 423 175 428Q126 432 122 435L117 442L116 448Q119 458 130 459L187 457L244 455L295 457L346 459Q370 459 374 448L371 439L368 436L341 430Q323 430 310 425T288 408T267 354L244 256L220
162Q206 103 206 65Q206 36 240 30L296 26Q301 21 303 11L301 8Q295 2 277 0L238 2L199 4L127 2L54 0L48 2L43 10Q45 28 86 28Q126 28 136 58L167 178L198 311Q201 325 206 356T211 396Z" />
<glyph unicode="2" glyph-name="two" horiz-adv-x="433" d="M350 112Q362 112 363 98L346 53L329 9Q321 1 307 -1H267L219 1L171 3L96 1L21 -1H-5Q-20 1 -20 14L-19 19L-17 23L4 44L158 172Q222 226 232 237Q268 276 268 324Q268 418 179 418Q136 418 107 395Q87
381 68 352Q53 329 47 327Q35 329 35 342Q35 352 53 379Q113 466 195 466Q252 466 294 430T337 335Q337 278 290 228Q272 210 195 152L68 60L156 56H175H190H203Q245 56 276 60T323 88T350 112Z" />
<glyph unicode="3" glyph-name="three" horiz-adv-x="432" d="M357 34Q357 -70 253 -155Q155 -235 48 -235Q27 -235 7 -225T-14 -194Q-14 -164 20 -164Q36 -164 58 -179T92 -197Q158 -197 224 -130T291 5Q291 61 261 103Q228 148 173 148Q159 148 135 140T97 129Q85
132 85 142Q85 149 108 163Q223 215 246 233Q314 283 314 365Q314 429 251 429Q209 429 172 389L155 366L144 360Q137 363 132 370Q138 406 182 435T265 465Q308 465 339 436T371 362Q371 306 328 262Q306 240 238 196Q241 191 267 177Q357 127 357 34Z" />
<glyph unicode="4" glyph-name="four" horiz-adv-x="433" d="M202 46L259 48L284 164L297 232Q309 262 352 262L356 259L359 251Q355 235 349 200T339 149L320 46L395 48Q416 48 416 31Q416 23 407 3L398 -3L386 -4L359 -2L333 -1L309 -4Q299 -33 290 -87L275
-170Q270 -194 263 -204T234 -214Q206 -214 206 -195L212 -169L218 -143L252 0H198L144 -2L90 -4H45L12 -1L9 3L8 9Q8 32 16 44Q59 106 147 214L334 445Q355 474 376 474L390 471L395 463L396 458Q396 445 241 269Q80 84 56 50L202 46Z" />
<glyph unicode="5" glyph-name="five" horiz-adv-x="432" d="M-17 -190L34 -171Q292 -81 292 105Q292 174 247 216Q221 239 162 265Q117 283 117 295Q117 307 126 333L142 371Q162 428 165 431Q172 443 191 447Q218 447 256 452L357 463Q360 462 362 461T369 455L370
452V448Q370 415 351 406L303 398L217 391Q160 380 160 344L164 330Q166 327 220 304T308 247Q354 198 354 120Q354 19 281 -64Q219 -132 115 -180Q109 -183 93 -187T57 -197L-2 -211Q-16 -209 -20 -198L-17 -190Z" />
<glyph unicode="6" glyph-name="six" horiz-adv-x="433" d="M432 689L440 686L442 680Q444 674 409 653L364 629Q246 561 175 451Q99 334 99 205Q99 132 119 85Q146 18 208 18Q279 18 319 103Q351 170 351 251Q351 297 331 331Q307 372 265 372L215 363Q205 364
201 376Q215 405 276 405Q339 405 380 355Q417 309 417 244Q417 148 363 73Q303 -11 211 -11Q119 -11 73 72Q36 140 36 239Q36 374 135 503Q231 626 364 671Q418 689 432 689Z" />
<glyph unicode="7" glyph-name="seven" horiz-adv-x="433" d="M59 441Q65 453 73 453L91 451L107 450L187 449L292 452L398 455Q412 455 412 438Q389 401 362 342L320 245L181 -57L152 -132Q131 -182 118 -200Q109 -211 92 -211Q69 -211 71 -196Q115 -106 213
109Q329 365 329 386L326 388Q314 393 269 393H263L170 389L77 386L74 387H70L63 393L59 441Z" />
<glyph unicode="8" glyph-name="eight" horiz-adv-x="432" d="M95 463Q95 532 149 579T273 627Q337 627 382 591T428 489Q428 429 381 383Q340 345 277 327Q282 319 317 289Q386 232 386 160Q386 90 331 40T205 -11Q135 -11 82 30Q23 74 23 140Q23 205 71 253Q112
294 183 309Q139 339 117 377T95 463ZM262 345Q310 345 347 398Q380 446 380 497Q380 543 351 573T276 603Q221 603 186 568T151 477Q151 431 183 388T262 345ZM204 17Q254 17 289 53T324 138Q324 186 286 238T200 290Q149 290 113 247T77 149Q77 96 113 57T204
17Z" />
<glyph unicode="9" glyph-name="nine" horiz-adv-x="432" d="M213 -84Q219 -71 240 -49L270 -15Q369 119 369 282Q369 341 343 387Q311 444 257 444Q196 444 151 363Q113 293 113 225Q113 169 136 132Q163 84 214 84Q224 84 229 85T248 92Q268 100 280 102Q287
99 290 91Q286 73 251 61Q224 52 199 52Q132 52 90 109Q54 160 54 232Q54 314 112 390T252 466Q334 466 385 396Q430 333 430 247Q430 109 344 -11Q266 -122 136 -188Q92 -210 62 -220T9 -231Q2 -231 -5 -223L-6 -218Q-3 -208 33 -194L81 -177Q135 -152 175 -118L213
-84Z" />
<glyph unicode=":" glyph-name="colon" horiz-adv-x="248" d="M222 456Q253 456 253 421Q253 391 230 356T177 320Q150 320 150 353Q150 387 170 421T222 456ZM123 128Q135 128 143 120T154 98Q154 63 130 30Q106 -6 70 -6Q48 -6 48 28Q48 58 71 93T123 128Z" />
<glyph unicode=";" glyph-name="semicolon" horiz-adv-x="247" d="M221 458Q252 458 252 426Q252 391 232 360Q208 322 178 322Q149 322 149 363Q149 394 170 426T221 458ZM8 -143L42 -109Q56 -94 83 -54Q109 -11 109 6L107 10L92 2L76 -3Q53 -3 53 30Q53 59 72
93T119 127Q150 127 150 76Q150 20 108 -58T19 -157H13L7 -151V-147L8 -143Z" />
<glyph unicode="&lt;" glyph-name="less" horiz-adv-x="551" d="M527 446L102 253L527 60V-8L19 222V284L527 514V446Z" />
<glyph unicode="=" glyph-name="equal" horiz-adv-x="638" d="M33 223H692V180H33V223ZM33 398H692V353H33V398Z" />
<glyph unicode="&gt;" glyph-name="greater" horiz-adv-x="551" d="M25 60L450 253L25 446V514L533 284V222L25 -8V60Z" />
<glyph unicode="?" glyph-name="question" horiz-adv-x="412" d="M419 559Q419 595 394 633Q366 676 333 676Q312 676 284 650T242 624Q231 624 222 632T213 651Q213 674 249 691Q255 694 272 699T306 704Q373 704 411 658T450 544Q450 458 404 397T273 305Q238
295 201 276Q194 269 178 231T153 193Q145 193 140 201L139 206L164 274L186 328Q192 339 259 364T363 423Q419 474 419 559ZM138 128Q170 128 170 98Q170 69 148 32T99 -6Q68 -6 68 36Q68 67 89 97T138 128Z" />
<glyph unicode="@" glyph-name="at" horiz-adv-x="1015" d="M529 500Q467 500 419 433Q378 372 378 305Q378 264 400 236T462 208Q522 208 570 280Q611 344 611 408Q611 442 588 471T529 500ZM662 556H731L658 310Q640 244 640 230Q640 201 661 201Q720 201 765
282Q803 352 803 417Q803 533 721 606Q643 675 524 675Q393 675 307 581T220 355Q220 223 310 133T532 43Q600 43 665 73T774 157H841Q793 76 708 29T529 -19Q449 -19 382 8T258 91Q147 201 147 361Q147 515 258 626T524 737Q662 737 763 652Q868 562 868 425Q868
324 800 234Q726 136 629 136Q601 136 583 153Q565 173 565 199Q506 136 443 136Q380 136 338 183T296 296Q296 349 311 395T358 483Q424 572 527 572Q604 572 642 494L662 556Z" />
<glyph unicode="A" glyph-name="A" horiz-adv-x="680" d="M426 725Q438 719 441 682T485 462L566 71Q570 50 610 40T658 21L659 17V13Q659 0 642 0Q620 0 582 7L523 14Q487 14 445 8Q430 6 422 5T413 2Q395 2 395 25L396 28L403 33Q439 41 450 46Q472 59 472 88Q472
119 456 218T428 327L399 331Q378 333 347 334T248 335L241 330Q240 317 217 275L164 178Q128 106 128 80Q128 50 170 41Q213 35 213 11Q207 4 203 1L197 0Q181 0 147 6T96 12Q77 12 40 6T-18 0Q-32 0 -38 15Q-35 24 -2 39Q36 54 46 66Q88 116 141 212L220 370L320
565Q405 725 426 725ZM380 361H399Q411 361 423 363L379 602L363 577Q284 449 260 366L320 363L380 361Z" />
<glyph unicode="B" glyph-name="B" horiz-adv-x="597" d="M552 239Q552 164 511 108Q463 45 380 20Q320 2 221 2L152 3L82 5Q75 5 63 4T36 0L-10 -4Q-27 -4 -27 17L-17 27Q22 27 42 42Q58 53 68 95Q127 366 184 583L197 638Q197 664 159 664H144L129 663Q101 663
101 681Q101 698 136 698L174 696L213 694H301L379 697L457 701Q501 701 533 671T566 596Q566 533 525 486Q499 455 431 411L464 392Q503 368 527 326Q538 306 545 284T552 239ZM226 392Q350 404 398 424Q492 462 492 554Q492 623 432 650Q392 667 311 667Q293
667 282 649Q275 634 249 523T223 396L226 392ZM189 37H243Q343 37 403 87Q469 140 469 237Q469 263 452 296Q431 337 400 354T318 372Q229 372 212 355Q209 352 176 217T142 66Q142 37 189 37Z" />
<glyph unicode="C" glyph-name="C" horiz-adv-x="576" d="M47 254Q47 449 216 588Q375 720 574 720Q604 720 604 698Q604 562 566 562Q563 563 560 565T554 571L553 580L554 599L556 618Q556 650 545 663T499 677Q417 677 329 616Q138 482 138 279Q138 171 184
101Q239 19 341 19Q395 19 434 58Q456 80 484 134Q506 178 518 184Q529 184 529 169Q529 157 524 142L516 115Q516 83 507 30Q498 13 423 -4Q361 -16 324 -16Q201 -16 124 58T47 254Z" />
<glyph unicode="D" glyph-name="D" horiz-adv-x="721" d="M185 637Q185 655 153 662Q145 664 130 665T108 666L101 669L99 676Q99 696 129 696L166 693L204 691L272 694L339 697H415Q556 697 636 630Q720 558 720 418Q720 239 567 116Q424 3 239 3L161 6L84 9L42
5L1 1Q-17 1 -17 13Q-17 25 2 29L42 37Q65 46 71 68T87 176T141 448L167 544Q185 610 185 637ZM232 34Q400 34 513 144T627 423Q627 665 329 665Q303 665 282 653Q267 646 213 390T159 85Q159 34 232 34Z" />
<glyph unicode="E" glyph-name="E" horiz-adv-x="535" d="M-25 22Q-25 29 -8 32L14 33Q49 33 65 72L91 184Q97 216 108 270T137 404L170 522Q193 605 193 636Q193 667 148 667Q103 667 103 687L104 690Q113 703 132 703Q141 703 150 703Q166 700 175 699L216 695L340
693H445L493 697L541 701Q552 701 555 688Q555 676 550 650T543 611Q532 549 527 542L512 539L506 544Q500 556 500 592Q500 646 454 653T307 661Q283 661 273 639L264 597Q254 536 243 483T217 383Q220 380 260 380Q407 380 429 417L462 488L469 493L472 494Q489
494 489 478Q489 460 472 411T452 343L446 285Q440 241 426 238L416 240Q410 246 410 267L411 285L412 303Q412 355 301 355L216 354L211 352Q207 315 175 210Q148 118 148 70Q148 34 244 34Q368 34 420 63Q455 81 467 120T496 166Q511 163 511 147L510 135L483
16Q480 -1 444 -1L287 3L129 8L60 6L-10 4L-14 5Q-25 9 -25 22Z" />
<glyph unicode="F" glyph-name="F" horiz-adv-x="494" d="M189 640Q189 651 170 667Q162 670 139 670Q115 670 109 675L107 682Q107 698 130 698L198 696L265 694L408 696L550 699H556L561 694L563 690L552 612Q543 552 531 546Q511 549 511 593Q511 637 484 654Q464
665 416 665H320Q290 665 280 656T264 614L249 524Q237 482 222 392L220 389L223 384L295 382Q410 382 441 423Q450 443 458 458Q463 468 473 483L479 489L484 490Q495 487 495 478Q495 470 491 456T484 432L469 382Q469 332 455 257Q452 250 443 247L437 249Q430
256 430 301Q430 358 351 358H266L242 357L217 356L210 339L168 148L152 67Q152 43 208 34Q260 28 258 13Q253 1 236 1L173 5L112 10L60 6L8 2Q-14 2 -22 14Q-19 32 1 35L39 41Q59 47 70 77Q85 126 105 222L133 367L169 535Q189 627 189 640Z" />
<glyph unicode="G" glyph-name="G" horiz-adv-x="680" d="M346 -14Q209 -14 122 60T35 271Q35 478 213 605Q373 717 589 717H604H619Q711 717 711 689Q711 681 709 677Q699 648 685 588Q685 581 680 572L676 569L673 566H667Q652 566 649 587V620Q649 660 632
675T572 690Q505 690 427 659Q128 542 128 286Q128 172 193 95T373 17Q417 17 432 27T470 122T493 226Q493 248 466 256L415 260Q390 263 388 278Q388 296 473 296L523 294L572 293L621 296L668 299Q689 299 689 279Q689 270 647 264Q600 259 587 230T553 128L525
18Q461 -14 346 -14Z" />
<glyph unicode="H" glyph-name="H" horiz-adv-x="721" d="M532 372Q552 372 563 375Q563 393 580 453L607 564Q610 577 615 605T620 640Q620 663 583 663Q542 663 532 676L531 682Q531 701 559 701Q573 701 587 701Q603 698 611 697L662 693L716 696L770 700Q788
700 789 687Q789 672 768 669L725 660Q702 649 693 614L671 499Q650 389 620 257L595 160Q578 95 578 66Q578 45 624 38T676 24L678 14Q672 2 661 1L606 8L564 10H525L476 6L427 2Q407 2 407 20Q407 33 427 36L467 41Q490 47 499 73Q505 91 513 131Q518 153 522
177L542 283L554 337V341L544 342H535L526 341L381 343L235 345L204 342L172 203Q150 109 150 68Q150 44 174 36L221 31Q246 31 246 12Q240 -1 229 -2Q212 -2 175 4T118 10H82L53 9L22 3L-7 -1Q-15 -1 -23 7L-25 12V16Q-25 27 -4 32Q31 35 39 39Q63 48 68 81T80
148Q83 164 92 211T117 329T151 475L174 558Q180 580 185 603T191 636Q191 656 155 662Q112 667 103 675V681L102 687Q102 698 125 698L175 694L224 691Q240 691 257 691Q275 694 285 695L346 699Q361 699 361 687Q361 677 347 669Q286 657 272 636L252 551L212
379H228L380 375L532 372Z" />
<glyph unicode="I" glyph-name="I" horiz-adv-x="288" d="M-20 18Q-16 35 14 38Q47 38 60 51Q66 57 72 80L98 191L154 435L183 564Q189 593 191 605T194 634Q194 656 147 660Q102 660 100 679Q100 697 126 697Q143 697 150 697T181 692L235 688L290 691L345 695Q360
695 360 678Q360 672 352 667L338 663L292 654Q275 646 268 614L247 497Q233 413 195 262L168 167Q153 110 153 70Q153 48 177 40L222 34Q243 31 245 16Q245 0 219 0Q202 0 188 2T164 5L108 10Q99 10 85 9T50 5L-8 1L-12 3Q-17 8 -20 18Z" />
<glyph unicode="J" glyph-name="J" horiz-adv-x="268" d="M-142 -165Q-110 -165 -96 -192T-67 -221Q-21 -221 33 -68Q71 41 115 237L161 458L183 547Q195 600 195 638Q195 666 154 666Q107 666 96 675L93 686L96 693Q103 698 117 700L175 696L234 693L298 695L362
697L371 695Q376 691 378 683L374 674Q367 665 340 665Q313 665 295 647T259 547L211 319Q178 148 159 83Q123 -49 65 -138Q-25 -278 -121 -278Q-193 -278 -193 -208Q-193 -190 -177 -178T-142 -165Z" />
<glyph unicode="K" glyph-name="K" horiz-adv-x="617" d="M609 7Q609 -8 594 -8L565 -4L531 2Q525 2 504 4T469 6Q461 6 448 23Q427 50 340 182Q274 281 224 334L202 316Q196 300 172 188Q161 133 156 105T149 62Q149 37 194 31T241 14Q241 1 213 1L159 4L107
7Q27 7 -8 -1Q-15 0 -19 9L-16 15Q-10 24 22 27Q48 27 61 54Q70 74 88 153L140 423L170 533Q191 607 191 639Q191 657 159 666L112 674L109 677L107 682L110 693L115 697H128Q142 697 156 697Q172 694 180 693L231 690L284 693L338 697Q349 697 355 690L357 684Q351
667 319 664T280 649L245 511L212 370Q215 367 217 367Q239 376 357 482L507 618Q511 627 524 639L526 647Q525 659 496 667Q461 673 453 681V686Q455 698 478 698L500 696L521 694H624L646 696L667 698Q676 698 679 691V685Q675 678 671 676L632 657Q594 636 551
604T456 528Q309 401 289 387Q352 308 439 180L508 78Q522 59 565 33L609 7Z" />
<glyph unicode="L" glyph-name="L" horiz-adv-x="535" d="M-10 25Q-1 31 30 34Q54 34 66 54Q74 67 110 250L151 473L172 559Q185 614 185 646Q185 664 141 668Q99 668 97 685Q97 699 121 699Q129 699 141 698T169 694L215 690L278 693L341 698Q353 698 364 694L368
682Q368 676 363 673Q353 665 310 665Q279 665 270 636L247 539L201 299L174 186Q157 113 157 74Q157 34 258 34Q426 34 465 91Q469 98 479 128Q485 151 494 162L503 164Q513 161 514 145Q514 121 485 22Q479 -1 458 -1L422 2L386 6L298 9H244L189 8L96 4L2 0Q-12
0 -12 17L-10 25Z" />
<glyph unicode="M" glyph-name="M" horiz-adv-x="844" d="M693 696L754 697L814 698Q832 698 832 684Q832 665 789 665Q747 665 744 635L740 528Q740 513 735 437T730 300L719 81Q719 56 740 44L778 33Q799 27 799 12L798 8L788 0H781Q774 0 762 1T735 5L688 10L627
6L565 2Q548 2 548 20Q551 25 553 27L621 49Q636 60 642 118L662 415L671 499L676 582V587L675 591Q652 557 520 278Q399 21 385 13L377 19Q373 30 359 115Q344 241 308 503L299 551L294 600Q265 549 171 331Q71 99 71 77Q71 52 116 43T169 21Q169 3 149 3H145Q138
3 126 4T100 8L55 13L6 7Q-27 1 -43 1Q-62 1 -62 20Q-62 30 -29 41T18 70L38 111Q42 122 53 147Q54 149 55 154L166 404L241 560L280 641Q273 664 217 664Q160 664 160 686L161 690L168 698L172 699L215 696L255 694L302 695L348 697L354 694Q365 682 393 440L408
309Q417 232 436 180L616 544L665 643L693 696Z" />
<glyph unicode="N" glyph-name="N" horiz-adv-x="701" d="M644 622Q644 650 617 659L567 663Q540 663 540 682Q540 698 593 698L628 696L662 694L711 697L760 700Q770 700 775 692V688Q775 682 768 676L726 667Q702 661 693 640Q681 610 669 544L650 443L579 124Q559
34 559 5L555 -2L551 -4L547 -3Q542 2 510 57L452 162L219 599Q215 571 206 526T184 431L145 263L126 169Q121 145 118 120T115 75Q115 53 140 43L187 34Q210 31 212 16Q212 1 188 1L149 3L111 6L43 5L-24 4Q-36 4 -36 18V23Q-26 34 2 40Q30 43 44 56Q65 76 82
135L146 422L173 527Q189 594 189 634Q189 656 160 662L104 665Q76 668 76 686L80 694Q85 697 96 699L150 697L203 695L253 698L261 694Q264 681 276 660L296 629Q338 552 380 473T464 317T549 156Q572 232 610 413Q625 488 634 544T644 622Z" />
<glyph unicode="O" glyph-name="O" horiz-adv-x="597" d="M380 716Q479 716 538 624Q588 544 588 439Q588 160 409 32Q344 -15 279 -15Q177 -15 114 85Q59 172 59 279Q59 434 142 564Q235 716 380 716ZM259 18Q374 18 450 199Q511 347 511 482Q511 685 376 685Q273
685 195 499Q132 346 132 221Q132 142 156 89Q189 18 259 18Z" />
<glyph unicode="P" glyph-name="P" horiz-adv-x="515" d="M201 295Q195 292 175 188T154 66Q154 42 202 36Q250 36 250 16Q250 1 231 1L161 5L91 9L40 6L-11 3Q-17 3 -21 8Q-26 11 -28 20Q-28 34 -10 37Q26 40 29 42Q53 51 69 82Q74 95 132 351T190 627Q190 656
158 662L102 667L96 674L95 680Q98 697 117 697L164 695L210 693L296 696L381 700Q458 700 510 658T562 540Q562 461 498 396Q441 338 360 312Q338 305 298 302T202 299L201 295ZM245 325Q326 325 402 395T478 545Q478 607 430 639Q389 665 324 665Q282 665 273
637L252 538Q222 392 206 326L245 325Z" />
<glyph unicode="Q" glyph-name="Q" horiz-adv-x="617" d="M272 -14Q149 7 100 101Q62 174 62 311Q62 449 151 577Q249 716 383 716Q500 716 563 616Q616 531 616 407Q616 302 579 208T463 54Q438 35 386 12T310 -28Q279 -48 176 -123Q208 -129 332 -177Q440 -217
480 -217Q531 -217 591 -170L627 -147L633 -149L637 -153L638 -156Q634 -162 632 -165Q624 -176 612 -188Q508 -287 415 -287Q371 -287 320 -262Q305 -255 283 -242T231 -208Q173 -170 146 -157Q88 -197 68 -197Q52 -197 52 -174Q52 -150 81 -134Q102 -122 132
-119L205 -71Q245 -42 272 -14ZM135 218Q135 142 168 86Q207 20 279 20Q405 20 481 190Q541 325 541 470Q541 549 508 611Q467 685 394 685Q283 685 202 502Q135 347 135 218Z" />
<glyph unicode="R" glyph-name="R" horiz-adv-x="576" d="M572 -35L566 -44L560 -47H553Q545 -47 525 -40L496 -29L406 -7Q392 -3 339 137L275 307L198 289L173 181Q157 109 157 74Q157 48 180 41L226 35Q249 32 252 16Q249 7 241 2Q228 2 212 4T186 7L131 10L73
6L16 3Q-2 3 -9 11L-10 20L-8 27L-4 31Q8 36 31 39Q49 39 55 44Q65 52 78 87T102 199Q105 229 109 263T119 317L167 523Q185 607 185 634Q185 645 176 654L132 662Q102 668 96 681V687Q96 695 114 700Q162 690 237 690L296 693L356 697Q394 697 425 691T483 671Q550
637 550 568Q550 485 489 425Q457 395 355 335L405 186Q444 75 464 52Q479 34 493 24L537 -3Q571 -25 572 -35ZM256 328Q343 352 397 405Q463 465 463 547Q463 604 417 635Q378 662 317 662Q279 662 267 639L254 581Q236 495 225 435Q218 400 204 316Q214 316 256
328Z" />
<glyph unicode="S" glyph-name="S" horiz-adv-x="412" d="M6 144Q6 152 19 158H25Q31 158 49 109Q55 89 65 78Q98 25 175 25Q235 25 266 62T298 159Q298 199 252 273L168 408Q123 491 123 552Q123 620 175 668Q224 712 295 712Q327 712 398 692T470 650Q470 629
458 582T433 527Q416 527 412 567Q412 615 395 639Q372 678 304 678Q194 678 194 575Q194 537 240 463L325 326Q347 286 359 251T371 187Q371 86 298 34Q234 -12 129 -12Q81 -12 22 11Q6 27 6 52V144Z" />
<glyph unicode="T" glyph-name="T" horiz-adv-x="597" d="M43 542Q43 550 75 633L113 738Q118 743 125 745L131 743Q137 737 140 714Q140 696 162 690L247 692L387 689L526 686H601Q636 686 654 714T681 747L688 746Q697 741 697 732L678 645L657 561Q654 552
640 546Q632 547 626 556L624 562L630 591Q636 609 636 619Q636 652 498 652H456Q440 652 437 647T428 622L343 242L323 160Q318 138 315 117T312 77Q312 52 374 43Q435 37 441 14Q439 -1 424 -1L369 5Q333 11 313 11H279Q225 11 198 8L123 -1Q103 -1 103 17Q103
35 132 39Q184 44 189 46Q221 56 229 94Q239 152 253 222T291 401Q303 449 316 503Q334 581 347 642L344 646Q332 652 285 652Q205 652 167 637Q117 617 83 555L68 530L55 525Q43 530 43 542Z" />
<glyph unicode="U" glyph-name="U" horiz-adv-x="658" d="M190 636Q190 654 153 658Q113 658 102 674L100 679L109 693L119 696Q140 693 163 691T213 689Q223 689 240 690T280 694Q325 700 347 700Q353 700 358 694T366 681Q366 669 337 664T305 657Q282 648 270
623L243 529Q206 393 183 285Q164 190 164 150Q164 87 213 53Q255 25 321 25Q398 25 448 76Q483 114 513 200Q527 242 568 418L594 516Q608 577 608 616Q608 643 586 652L545 659Q524 664 524 683L525 686L528 694Q532 696 547 698L597 694L646 691L687 695L727
699Q735 699 745 693T753 678Q747 663 726 660Q696 660 688 656Q666 649 654 614L623 491L582 311Q555 202 526 134Q466 -10 303 -10Q209 -10 150 27Q79 73 79 160Q79 194 102 293T166 537L181 586Q190 616 190 636Z" />
<glyph unicode="V" glyph-name="V" horiz-adv-x="680" d="M626 637Q626 661 576 661Q526 661 526 680Q526 686 530 694Q536 697 547 699L584 696L622 694H648L673 693Q738 693 770 699Q784 696 786 681Q786 666 760 660Q724 654 722 652Q695 637 670 603L627 544L388
238Q185 -19 174 -25L165 -28Q157 -25 153 -18V-9L152 0L153 60L155 122Q155 155 157 245T160 374L169 612Q169 647 153 654Q120 654 108 658Q77 664 77 682Q77 697 100 697L147 694L193 691L260 694L327 698Q342 698 342 682Q342 664 321 661L279 657Q258 651
253 618Q253 616 250 553T246 450L240 281L230 104L232 94Q236 97 249 113Q270 138 284 156L385 289L526 477Q530 482 567 532Q585 556 603 580Q626 614 626 637Z" />
<glyph unicode="W" glyph-name="W" horiz-adv-x="865" d="M389 617Q389 646 375 657L335 675L333 679V688Q335 693 337 694T342 697L396 698H451L502 697L510 692Q513 689 513 681Q513 673 490 665T463 642L458 604Q452 554 449 510T445 404L529 527Q594 624 594
646Q594 666 558 672L550 680Q550 693 562 698H600L708 699L713 698L719 691L718 684Q715 676 686 666Q656 654 646 647T621 618Q578 549 479 403L447 359L436 126Q570 283 692 447L827 633L828 636L832 649L827 660L795 670Q774 675 771 686Q777 698 794 698L836
696L878 694L953 699Q964 698 966 687Q966 678 941 668Q897 652 873 628L824 567L597 276L480 132Q412 49 368 -16L364 -18L358 -15L356 -10V-4Q356 37 365 121T374 247V255L225 54Q218 42 206 24T175 -18H171L165 -15L163 -10V-4L166 289L170 581Q170 632 157
651Q150 660 127 665Q107 668 96 677L94 682V686L98 694L104 697L161 698H218L275 697Q284 697 287 694L294 683Q291 676 284 671Q257 665 251 650Q249 647 248 635T246 608L245 505L241 340L237 175Q237 159 237 146T239 120Q295 190 338 253L374 309L383 454L389
617Z" />
<glyph unicode="X" glyph-name="X" horiz-adv-x="762" d="M122 681Q125 690 127 693L147 697L195 695L242 693L297 695L352 697Q383 697 384 684Q384 666 339 661Q295 661 295 638Q295 607 429 394L432 392Q450 396 562 508T674 636Q674 655 641 661T607 686Q607
699 626 699Q645 699 673 694L720 690L775 694L830 698Q851 698 851 682Q851 675 833 667L784 649Q764 641 737 620Q657 558 586 497T445 368L529 212Q602 80 609 74Q627 57 655 47L683 40Q731 28 732 15Q732 0 711 0Q699 0 681 1T639 5L566 10Q555 10 538 9T497
5L429 1Q408 1 408 18Q408 32 459 38T510 69Q510 89 455 190Q429 238 413 264Q394 296 381 314Q140 99 140 65Q140 46 174 37Q208 31 209 17L206 10L200 4L193 1H175L130 4L87 7L31 4L-24 2Q-36 2 -43 12L-44 19L-41 23Q-10 36 6 44T56 70Q119 108 212 198Q331
311 364 338L340 380L289 473L225 583L196 631Q184 649 153 656T122 681Z" />
<glyph unicode="Y" glyph-name="Y" horiz-adv-x="680" d="M198 690L260 692L322 694H331Q340 689 340 680Q340 659 297 659Q250 659 250 623Q250 601 298 493T364 375L370 372L375 373Q420 407 506 501Q605 608 605 636Q605 654 574 660Q541 664 537 680Q537 695
559 695L617 691L674 688L721 692L769 697L780 693L784 687L786 681Q786 672 750 654L706 633Q685 624 672 611L535 487Q497 451 464 418T407 358T369 260L346 165Q332 106 332 69Q332 48 354 40T427 31L432 29L435 26L437 21L436 16Q430 0 401 0Q393 0 380 1T349
5L297 10Q286 10 269 9T228 5L160 0L152 4L147 11Q147 30 185 35Q222 35 239 55Q249 66 258 110L286 247L296 317Q296 335 233 464Q183 569 155 619Q148 631 130 645L99 661Q79 671 77 679Q77 694 103 694L150 692L198 690Z" />
<glyph unicode="Z" glyph-name="Z" horiz-adv-x="535" d="M230 336L469 648Q465 654 462 656L355 661Q172 661 132 582Q130 573 127 565T115 542L103 541Q88 541 88 559Q88 594 100 642Q103 654 106 664T111 679Q120 699 141 699L182 696L222 694Q297 694 374
694T530 696L555 698L580 700Q592 700 597 696L599 692V687L598 684Q568 636 516 572L428 464Q396 420 356 368Q310 308 251 232L178 142Q127 76 117 53V49Q117 35 200 35Q369 35 413 60Q432 69 446 91L471 135Q490 167 498 169L509 166Q512 161 512 150Q512 131
505 106L494 63Q490 36 489 30T483 19Q474 -1 448 -1L406 1L364 3L234 1L103 -1H7Q-3 -1 -9 5Q-9 25 230 336Z" />
<glyph unicode="[" glyph-name="bracketleft" horiz-adv-x="308" d="M237 742L244 746Q249 749 382 749H388L395 746Q398 741 400 732Q400 715 357 715L335 716L312 717Q288 717 279 693L270 649Q207 319 154 95L97 -166L80 -245Q80 -266 116 -266H134L152 -265Q185
-265 185 -285L183 -290L179 -294L163 -296L102 -295L40 -294Q28 -294 22 -283L53 -133L138 261L198 561Q207 620 237 742Z" />
<glyph unicode="\" glyph-name="backslash" horiz-adv-x="278" d="M-17 737H49L295 -19H228L-17 737Z" />
<glyph unicode="]" glyph-name="bracketright" horiz-adv-x="308" d="M1 -260Q26 -260 38 -233L48 -184L79 -43Q100 63 108 102Q122 171 141 253Q151 299 178 412L224 600Q242 681 242 699V703L236 711Q231 712 226 713Q203 717 178 717Q139 717 137 734Q142 749
156 749L200 747L245 745L263 746H281Q292 746 300 734Q300 708 291 672L275 613L181 195L78 -286L75 -289L69 -291L24 -292H-21H-73L-81 -287L-84 -274Q-84 -257 -44 -257L-22 -258L1 -260Z" />
<glyph unicode="^" glyph-name="asciicircum" horiz-adv-x="0" d="M-4 732Q-11 732 -12 739Q-12 755 58 830T145 907Q160 907 173 879L187 836Q195 821 203 801T222 747Q220 738 214 735Q204 735 173 776L131 828Q115 822 62 777T-4 732Z" />
<glyph unicode="_" glyph-name="underscore" horiz-adv-x="556" d="M0 -125V-75H556V-125H0Z" />
<glyph unicode="`" glyph-name="grave" horiz-adv-x="0" d="M26 687Q38 687 97 615T156 526Q153 519 145 518Q132 518 68 581T3 662Q3 670 10 678T26 687Z" />
<glyph unicode="a" glyph-name="a" horiz-adv-x="432" d="M309 455Q330 455 339 445L357 426L361 428Q369 437 375 454Q378 465 384 470T414 475H427L432 472L435 468L436 462Q426 423 350 253Q279 93 279 73L280 70L285 61L291 60Q316 60 364 117T420 176L425
173L429 166Q423 135 343 62T230 -11Q205 -11 205 10Q205 43 238 112T271 190L221 140Q164 78 121 44Q58 -7 19 -7Q-37 -7 -37 54Q-37 117 39 242Q75 302 159 374Q254 455 309 455ZM53 61Q124 61 231 183T339 377Q339 426 293 426Q228 426 124 294Q24 165 24 95Q24
61 53 61Z" />
<glyph unicode="b" glyph-name="b" horiz-adv-x="390" d="M207 700Q207 708 182 717T150 736Q151 739 152 741T156 748L168 749Q176 749 190 750T220 754L272 759L278 758L284 750V745Q281 737 280 731Q275 715 267 693L117 278Q120 275 122 275L208 387Q265 455
320 455Q349 455 365 434T382 383Q382 303 365 258Q329 159 261 82Q178 -10 88 -10Q17 -10 17 67Q17 129 83 333Q137 493 142 507T178 609L207 700ZM55 46Q55 10 87 10Q152 10 251 155Q345 294 345 366Q345 412 305 412Q236 412 143 262Q55 121 55 46Z" />
<glyph unicode="c" glyph-name="c" horiz-adv-x="268" d="M255 459Q276 459 299 448T323 418Q323 392 292 392Q276 392 250 408T206 426Q188 426 156 376Q119 320 91 242T62 102Q62 41 110 41Q137 41 170 75T212 109L217 104Q208 73 154 29T68 -15Q32 -15 14 21Q0
49 0 90Q0 192 75 320Q160 459 255 459Z" />
<glyph unicode="d" glyph-name="d" horiz-adv-x="433" d="M448 706Q448 722 426 728Q396 734 391 737L388 744L389 748L396 754L405 755Q445 755 518 765L523 764L527 761L532 752Q523 721 459 555L329 206Q284 80 284 58Q284 50 296 48H302Q333 64 365 104L420
169L425 170Q430 169 433 162Q424 123 352 57T240 -10Q219 -10 219 19Q219 47 240 104T262 178L258 181L214 131Q162 73 122 40Q64 -10 37 -10Q3 -10 -11 14Q-15 22 -17 35T-19 70Q-19 177 83 309Q190 446 295 446Q318 446 352 427L407 571Q448 682 448 706ZM73
62Q137 62 234 186Q327 306 327 375Q327 424 283 424Q264 424 242 410Q214 392 203 389Q148 348 95 260T42 106Q42 62 73 62Z" />
<glyph unicode="e" glyph-name="e" horiz-adv-x="247" d="M51 112Q51 91 63 70T98 48Q126 48 152 77L191 128L197 132Q206 129 206 121L204 116L147 35Q108 -10 64 -10Q33 -10 12 24Q-4 53 -4 87Q-4 183 65 314Q144 459 231 459Q275 459 275 401Q275 329 211 277Q180
251 147 238T78 224Q51 168 51 112ZM88 246L92 245Q148 260 199 310T250 415Q250 441 224 441Q195 441 141 362Q93 291 86 252L88 246Z" />
<glyph unicode="f" glyph-name="f" horiz-adv-x="247" d="M49 433L50 438L53 442L61 446H139Q151 480 162 511T189 584Q224 670 266 714Q321 772 394 772Q465 772 465 739Q465 729 456 720Q448 714 437 712Q422 712 393 724T348 736Q295 736 248 616L198 446L227
447L255 448Q310 448 313 431Q306 415 256 415L193 417L125 166Q85 7 53 -84Q36 -134 24 -165T6 -207Q-34 -280 -88 -280H-92Q-119 -280 -137 -267T-156 -228Q-156 -198 -129 -198Q-108 -198 -99 -217L-90 -254Q-85 -259 -76 -259Q-35 -243 36 47Q73 205 133 418L74
419Q55 419 49 433Z" />
<glyph unicode="g" glyph-name="g" horiz-adv-x="349" d="M386 390Q381 380 369 379L336 381L303 384Q306 367 306 332Q306 270 275 216T187 139Q166 131 128 123Q110 120 90 105Q70 88 70 69Q70 51 123 10Q204 -52 222 -70Q250 -98 262 -123T275 -177Q275 -235
217 -271Q169 -301 104 -301Q38 -301 -24 -268Q-96 -229 -96 -166Q-96 -133 -59 -97Q-40 -78 11 -43Q48 -16 51 -6L24 21Q-3 48 -3 73Q-3 91 34 103T78 132Q77 140 51 174Q31 200 31 239Q31 309 83 382Q139 461 207 461Q232 461 249 452L281 424L354 418L377 416Q386
413 386 396V390ZM84 205Q84 144 127 144Q179 144 224 228Q263 302 263 361Q263 389 252 413T216 438Q160 438 118 347Q84 270 84 205ZM107 -278Q159 -278 191 -256Q230 -232 230 -182Q230 -156 165 -92T72 -28Q47 -28 5 -84T-37 -168Q-37 -217 13 -249Q57 -278
107 -278Z" />
<glyph unicode="h" glyph-name="h" horiz-adv-x="453" d="M-10 8Q-10 26 9 89T67 257L167 528Q217 673 217 699L210 708L171 726Q164 731 166 738Q169 746 186 746H198L210 745L247 748L284 752H293L301 747L302 742Q300 728 296 714T282 680L255 620L153 352Q142
318 123 264Q114 240 94 189V184L97 182L104 185Q153 276 211 348Q254 401 290 429T354 457Q431 457 431 349Q431 237 370 124Q299 -9 198 -9Q180 -9 163 3Q149 15 149 34Q149 60 179 60Q203 60 215 45T237 29Q287 29 339 171Q385 297 385 360Q385 423 349 423Q257
423 82 97L36 8Q25 -9 7 -9Q-1 -9 -10 4V8Z" />
<glyph unicode="i" glyph-name="i" horiz-adv-x="227" d="M170 669Q170 689 183 703T217 717Q235 717 248 702T262 667Q262 648 246 635Q230 624 209 624Q170 624 170 669ZM142 372L137 379L134 380Q121 380 94 357L56 324L49 322L45 323L41 328Q41 348 111 403T202
458Q217 458 217 436Q217 426 201 379Q194 359 188 340Q179 315 164 280L116 167Q80 80 80 58V53L82 49L91 47Q120 53 176 100L180 101H186L191 97L192 91Q180 67 125 29T43 -9Q13 -9 13 19Q13 62 77 202T142 372Z" />
<glyph unicode="j" glyph-name="j" horiz-adv-x="227" d="M229 717Q246 717 259 702T273 670Q273 652 259 638T227 624Q209 624 192 636Q178 648 178 668Q178 688 193 702T229 717ZM-153 -190Q-137 -190 -121 -215T-92 -242Q-55 -242 80 145L119 253Q136 301 143
327T151 368L145 376L136 377Q119 377 69 323T8 265L4 266L1 274Q1 290 82 367Q157 438 183 452L205 459Q224 456 224 435Q224 384 133 145Q59 -50 10 -159Q-8 -200 -26 -220Q-70 -270 -122 -270Q-143 -270 -163 -258T-184 -223Q-184 -190 -153 -190Z" />
<glyph unicode="k" glyph-name="k" horiz-adv-x="432" d="M223 710Q223 727 173 740L163 752Q163 760 188 763L221 762Q236 762 257 767T291 773L303 770L307 762Q303 732 265 634L182 420Q160 357 160 342L162 340H166L217 397Q269 452 316 452Q358 452 382 429T407
365Q407 310 371 269T278 211L184 200Q181 196 181 193Q250 20 315 20Q334 20 349 35T365 67L361 81L354 84L344 83L334 82Q321 82 316 90L313 102L320 113L332 117Q345 117 356 112Q381 92 381 61Q381 31 350 11T286 -10Q238 -10 203 37Q184 64 157 129Q136 186
123 196L119 197Q107 191 79 93T26 -6Q-1 -6 -1 18Q-1 25 2 37T13 67L33 116Q66 227 138 449L188 582Q223 678 223 710ZM178 222Q234 222 310 275T386 383Q386 415 337 415Q296 415 216 353T135 250Q135 222 178 222Z" />
<glyph unicode="l" glyph-name="l" horiz-adv-x="227" d="M230 693Q230 712 206 721Q174 733 170 737V743Q173 754 194 754L251 759Q293 764 302 762L307 761Q310 759 312 752Q305 735 289 691Q282 672 250 581T187 405Q83 107 81 89L82 84Q87 75 95 75Q112 75
158 124T213 175L220 172L222 169V160L196 127Q85 -10 35 -10Q9 -10 9 30Q9 80 185 563Q230 686 230 693Z" />
<glyph unicode="m" glyph-name="m" horiz-adv-x="638" d="M141 390Q141 398 132 400Q111 400 72 354L17 289H12L7 293V298Q16 334 79 395T178 456Q205 456 205 428Q205 397 179 329T130 224Q134 218 136 218L139 220L225 363Q288 455 347 455Q399 455 399 406Q399
371 351 261Q336 228 336 218L341 219L378 283Q479 457 556 457Q619 457 619 399Q619 365 551 235T483 79Q483 67 498 65Q537 77 564 109Q595 146 611 154H615Q622 154 623 146L622 140Q586 92 535 50Q468 -5 429 -5Q403 -5 403 24Q403 63 484 214T566 400Q566
426 541 426Q490 426 397 275L286 74Q275 52 263 33T233 -11L223 -12Q203 -12 203 7Q203 16 208 31T226 79L295 242Q343 359 343 402L341 408Q332 420 321 420Q267 420 93 87Q81 61 50 7Q39 -10 22 -10Q4 -10 4 6Q4 14 34 91Q141 364 141 390Z" />
<glyph unicode="n" glyph-name="n" horiz-adv-x="432" d="M126 392Q125 399 115 400Q100 400 67 364L23 314L17 312Q10 312 9 322Q9 343 71 401T156 459Q189 459 189 426Q189 403 170 345T112 193L111 183Q122 187 164 261Q214 350 248 390Q307 458 369 458Q391
458 406 445T422 410Q422 368 366 257L288 97L281 73Q285 66 288 63L296 61Q319 65 352 98T394 135L399 133L403 127L402 119L382 97Q286 -7 231 -7Q204 -7 204 18Q204 59 284 205T364 393Q364 414 341 423H332Q273 423 100 118Q72 56 38 -3L24 -9Q2 -9 2 11L31
96L86 248Q126 363 126 392Z" />
<glyph unicode="o" glyph-name="o" horiz-adv-x="329" d="M228 461Q313 461 313 307Q313 229 277 154T179 28Q132 -10 96 -10Q55 -10 34 43Q19 81 19 132Q19 223 56 306Q98 397 169 440Q205 461 228 461ZM96 10Q153 10 217 159Q273 294 273 362Q273 439 233 439Q177
439 114 286Q59 147 59 78Q59 10 96 10Z" />
<glyph unicode="p" glyph-name="p" horiz-adv-x="390" d="M120 404Q109 404 88 397L57 390L47 396L45 405Q45 410 133 431L161 527L173 571Q183 590 211 590Q226 590 233 579L209 507Q191 456 191 442L192 439Q218 442 239 444T279 446Q376 446 376 363Q376 261
323 162Q279 79 231 41Q173 -5 88 -5L64 -4Q56 -13 31 -112T6 -225Q6 -242 47 -251Q88 -258 94 -267V-271Q92 -280 78 -280L30 -274Q13 -272 -21 -271T-131 -270Q-146 -270 -149 -261L-150 -257Q-149 -248 -118 -245T-71 -225T29 71Q95 292 124 404H120ZM89 66Q89
22 133 22Q196 22 260 155Q315 274 315 348Q315 423 244 423Q224 423 214 422T183 415L108 167Q98 130 94 107T89 66Z" />
<glyph unicode="q" glyph-name="q" horiz-adv-x="412" d="M299 442Q337 442 363 429H367L371 428L397 446L426 468L433 466L436 463L437 459Q437 450 423 419L403 375Q368 286 291 61Q204 -196 204 -233Q204 -259 248 -259Q292 -259 293 -275Q290 -284 277 -285Q260
-285 246 -283T222 -280L167 -275L122 -277L75 -279L57 -278Q49 -277 46 -268L50 -262Q53 -260 69 -258T105 -253T138 -225L181 -135Q229 -36 252 23Q285 115 285 192Q281 199 278 199L178 73Q107 -7 52 -7Q-3 -7 -3 84Q-3 186 98 314T299 442ZM84 50Q146 50 244
185Q338 315 338 383Q338 423 295 423Q244 423 163 320Q93 229 70 165Q54 117 54 85Q54 50 84 50Z" />
<glyph unicode="r" glyph-name="r" horiz-adv-x="288" d="M149 456Q175 456 175 399Q175 374 159 331T143 273L148 269Q152 272 174 315T273 444Q287 451 295 454T310 458Q340 458 340 401Q340 337 305 337H298Q287 337 280 362Q281 374 282 387Q283 389 284 392L282
398L275 403Q228 403 147 240Q125 194 55 28Q42 -6 30 -7Q20 -7 9 2Q1 11 -1 21Q-1 34 20 87L81 232Q102 285 113 321T124 375L122 390L117 395L108 396Q94 396 56 337T6 272Q-6 273 -3 282Q11 309 27 335T62 385Q115 456 149 456Z" />
<glyph unicode="s" glyph-name="s" horiz-adv-x="227" d="M-31 82Q2 76 11 43T50 9Q82 9 104 30T126 85Q126 127 104 204T81 319Q81 373 109 416Q141 464 192 464Q216 464 242 451T269 417Q269 384 238 384Q220 384 203 408T171 434Q131 434 131 379Q131 338 155
259T179 137Q179 77 143 33T46 -12Q15 -12 -17 6Q-53 27 -53 56Q-53 76 -31 82Z" />
<glyph unicode="t" glyph-name="t" horiz-adv-x="206" d="M43 431Q43 437 48 440T77 444L104 446H131L149 503L163 547Q173 563 203 563Q217 563 222 551Q218 532 188 446L253 447L271 445L276 437V433Q276 417 233 417L211 418H188Q181 418 178 416Q163 356 100
200L76 146Q70 130 66 118T59 89L62 80L67 77H71Q96 77 138 131T187 188L191 189Q197 184 197 177Q197 150 115 71T4 -8Q-15 -8 -15 15Q-15 45 44 207L119 416L76 415Q43 415 43 431Z" />
<glyph unicode="u" glyph-name="u" horiz-adv-x="433" d="M-8 16Q-8 49 64 193L158 384V388Q158 400 146 402Q128 402 93 364Q74 342 62 331T42 314H38L34 316L31 322Q40 339 60 360T107 405Q170 457 198 457Q227 457 227 432Q227 404 161 276Q85 128 77 104L64
68V61L69 53L81 52Q101 52 166 111Q283 217 345 348Q358 384 385 434Q396 447 418 447Q430 447 433 440L434 435L404 362Q384 318 337 197Q285 61 285 45L296 41Q313 41 352 81L402 137L406 139L413 136L415 132V128L414 123L340 42Q292 -9 248 -9H238L231 -5Q222
4 222 19Q222 47 257 121T293 209L289 212L236 155Q173 86 129 49Q60 -8 17 -8Q6 -8 -5 1L-8 16Z" />
<glyph unicode="v" glyph-name="v" horiz-adv-x="349" d="M-3 293L6 310Q23 343 86 400T180 458Q206 458 209 429Q209 402 188 337L138 204Q122 158 114 126T106 70Q106 45 127 45Q181 45 257 169Q329 286 329 345Q329 360 318 387T306 429Q306 435 312 446Q318
454 327 456Q361 456 361 400Q361 272 258 129Q159 -8 97 -8Q73 -8 57 12T41 57Q41 92 76 184L127 315Q144 364 144 383Q144 392 130 392Q100 392 61 341Q16 283 6 277H2L-5 282V287L-3 293Z" />
<glyph unicode="w" glyph-name="w" horiz-adv-x="638" d="M29 344Q66 389 84 403L132 443L151 452Q162 458 172 458Q208 458 208 416Q208 390 187 328Q175 296 164 268T137 202Q121 159 112 128T103 77Q103 64 110 54T132 42Q193 42 286 190Q320 246 346 299T387
402T420 451Q439 451 452 446L455 438Q455 427 432 367Q343 132 343 79Q343 41 374 41Q431 41 520 164Q602 282 602 345Q602 360 593 389T584 434Q584 442 590 451T606 460Q637 460 637 404Q637 359 622 311T575 208Q521 118 444 47Q381 -10 346 -10Q318 -10 301
12T283 64Q283 87 295 123L313 180L308 185L285 154L260 117Q162 -10 111 -10Q78 -10 61 15T43 73Q43 97 54 134T90 228Q138 336 138 373Q138 391 124 392Q109 392 75 362T34 315L2 276L-4 273L-11 276L-13 281Q-13 293 29 344Z" />
<glyph unicode="x" glyph-name="x" horiz-adv-x="432" d="M176 227L147 318Q123 388 104 388L95 386Q79 374 79 351V331Q79 318 77 314L70 311L60 315Q58 321 57 329T56 356Q56 389 70 421T114 454Q150 454 178 399L209 312L218 284Q221 278 225 277L317 382Q382
455 422 455Q436 455 451 446Q463 437 464 421Q464 363 425 363Q411 363 408 383Q408 399 406 408Q404 412 395 413L392 412Q370 402 310 333L233 240Q280 54 317 54L320 55Q333 65 336 89T346 115Q360 115 360 89Q360 60 343 27T299 -7Q263 -7 228 71Q222 83 213
111T190 183L187 184L183 183L88 71Q19 -6 -22 -6Q-62 -6 -62 29Q-62 47 -48 67Q-36 87 -16 87L-4 85Q5 78 6 68L5 58L4 48L6 42L13 39L20 41Q68 92 177 218L176 227Z" />
<glyph unicode="y" glyph-name="y" horiz-adv-x="308" d="M-153 -220Q-153 -211 -143 -201Q-135 -195 -124 -193Q-109 -193 -91 -205T-64 -220Q-49 -220 -15 -192Q65 -123 96 4Q107 52 113 107T119 232Q119 390 67 390Q47 390 29 356L7 304L3 301H-1L-8 306L-9
311Q5 362 28 401Q60 457 97 457Q169 457 169 214Q169 125 154 65L147 32Q149 27 151 26Q157 26 180 74Q229 186 246 243Q273 333 273 423Q273 455 294 455Q314 455 314 436Q314 344 249 180Q180 4 90 -118Q-15 -261 -107 -261Q-153 -261 -153 -220Z" />
<glyph unicode="z" glyph-name="z" horiz-adv-x="370" d="M285 364L286 368L283 369L262 365L240 361Q215 361 174 389T113 417Q65 417 65 376L68 371L91 361Q103 354 104 342Q104 320 79 320Q62 320 50 335Q40 352 40 370Q40 406 76 430T149 454Q186 454 237
424T304 391Q307 405 311 414T322 435Q334 456 357 456Q378 456 378 437Q378 417 357 399Q316 368 274 313Q217 235 202 220Q153 171 79 86L124 89Q158 89 201 69L272 30H278Q284 30 290 36T299 50Q299 56 283 71T265 104Q265 139 296 139Q309 139 316 123T325
88Q325 -6 238 -6Q197 -6 147 27T69 61H65Q48 -8 14 -8Q-9 -8 -9 13Q-9 36 15 57L59 86Q102 148 178 246Q194 262 222 293T285 364Z" />
<glyph unicode="{" glyph-name="braceleft" horiz-adv-x="334" d="M42 294Q96 294 114 361Q118 376 120 405T122 473L121 516Q121 563 123 593T132 647Q155 722 225 722H292V657H248Q202 657 202 575V462L201 405Q201 363 177 320T114 265Q202 236 202 64L201
-23Q201 -131 248 -131H292V-196H225Q178 -196 151 -157T123 -67V104Q123 148 105 187Q84 234 42 234V294Z" />
<glyph unicode="|" glyph-name="bar" horiz-adv-x="260" d="M94 737H167V-19H94V737Z" />
<glyph unicode="}" glyph-name="braceright" horiz-adv-x="334" d="M292 234Q251 234 229 187Q211 151 211 104V-67Q211 -117 186 -154Q157 -196 109 -196H42V-131H86Q132 -131 132 -23L131 63Q131 139 144 181Q163 245 220 263Q182 275 156 321Q143 344 138 362T132
404V575Q132 657 86 657H42V722H109Q185 722 206 628Q212 596 212 473Q212 392 220 361Q237 294 292 294V234Z" />
<glyph unicode="~" glyph-name="asciitilde" horiz-adv-x="0" d="M80 863Q102 863 138 849T194 835Q215 835 229 846T256 861L262 859L266 848L263 842L261 836Q247 816 217 800T163 784Q142 784 107 798T51 813Q36 813 16 801Q-1 789 -10 789Q-15 792 -18 800Q-9
821 24 842T80 863Z" />
</font>
</defs>
</svg>
